HIERARCHY
ROOT Hips
{
	OFFSET 0.000000 0.000000 0.000000
	CHANNELS 6 Xposition Yposition Zposition Zrotation Yrotation Xrotation 
	JOINT LowerBack
	{
		OFFSET 0.000000 0.000000 0.000000
		CHANNELS 3 Zrotation Yrotation Xrotation
		JOINT Spine
		{
			OFFSET 0.028270 2.035590 -0.193380
			CHANNELS 3 Zrotation Yrotation Xrotation
			JOINT Spine1
			{
				OFFSET 0.056720 2.048850 -0.042750
				CHANNELS 3 Zrotation Yrotation Xrotation
				JOINT Neck
				{
					OFFSET 0.000000 0.000000 0.000000
					CHANNELS 3 Zrotation Yrotation Xrotation
					JOINT Neck1
					{
						OFFSET -0.054170 1.746240 0.172020
						CHANNELS 3 Zrotation Yrotation Xrotation
						JOINT Head
						{
							OFFSET 0.104070 1.761360 -0.123970
							CHANNELS 3 Zrotation Yrotation Xrotation
							End Site
							{
								OFFSET 0.000000 0.000000 0.000000
							}
						}
					}
				}
				JOINT LeftShoulder
				{
					OFFSET 0.000000 0.000000 0.000000
					CHANNELS 3 Zrotation Yrotation Xrotation
					JOINT LeftArm
					{
						OFFSET 3.362410 1.200890 -0.311210
						CHANNELS 3 Zrotation Yrotation Xrotation
						JOINT LeftForeArm
						{
							OFFSET 4.983000 -0.000000 -0.000000
							CHANNELS 3 Zrotation Yrotation Xrotation
							JOINT LeftHand
							{
								OFFSET 3.483560 -0.000000 -0.000000
								CHANNELS 3 Zrotation Yrotation Xrotation
								JOINT LeftFingerBase
								{
									OFFSET 0.000000 0.000000 0.000000
									CHANNELS 3 Zrotation Yrotation Xrotation
									JOINT LeftHandIndex1
									{
										OFFSET 0.715260 -0.000000 -0.000000
										CHANNELS 3 Zrotation Yrotation Xrotation
										End Site
										{
											OFFSET 0.000000 0.000000 0.000000
										}
									}
								}
								JOINT LThumb
								{
									OFFSET 0.000000 0.000000 0.000000
									CHANNELS 3 Zrotation Yrotation Xrotation
									End Site
									{
										OFFSET 0.000000 0.000000 0.000000
									}
								}
							}
						}
					}
				}
				JOINT RightShoulder
				{
					OFFSET 0.000000 0.000000 0.000000
					CHANNELS 3 Zrotation Yrotation Xrotation
					JOINT RightArm
					{
						OFFSET -3.136600 1.374050 -0.404650
						CHANNELS 3 Zrotation Yrotation Xrotation
						JOINT RightForeArm
						{
							OFFSET -5.241900 -0.000000 -0.000000
							CHANNELS 3 Zrotation Yrotation Xrotation
							JOINT RightHand
							{
								OFFSET -3.444170 -0.000000 -0.000000
								CHANNELS 3 Zrotation Yrotation Xrotation
								JOINT RightFingerBase
								{
									OFFSET 0.000000 0.000000 0.000000
									CHANNELS 3 Zrotation Yrotation Xrotation
									JOINT RightHandIndex1
									{
										OFFSET -0.622530 -0.000000 -0.000000
										CHANNELS 3 Zrotation Yrotation Xrotation
										End Site
										{
											OFFSET 0.000000 0.000000 0.000000
										}
									}
								}
								JOINT RThumb
								{
									OFFSET 0.000000 0.000000 0.000000
									CHANNELS 3 Zrotation Yrotation Xrotation
									End Site
									{
										OFFSET 0.000000 0.000000 0.000000
									}
								}
							}
						}
					}
				}
			}
		}
	}
}
}
MOTION
Frames: 9
Frame Time: 0.008333
-8.398542 16.178383 1.367668 -175.042225 76.949045 -157.326771 5.877302 -3.545020 0.912623 -0.011205 -4.018791 -2.012265 -8.507937 -3.920277 2.499563 7.721976 -10.146751 -7.846647 -4.223103 -0.313725 -0.173259 0.000000 0.000000 0.000000 3.559975 8.920117 2.447378 -18.231320 -11.390465 0.330319 -0.010371 -87.689980 0.054911 -12.867196 0.411618 -0.019535 0.172391 0.246660 -0.000000 0.000000 0.000000 0.000000 0.000000 0.000000 0.000000 17.870045 -8.875093 1.047643 66.479082 -8.817226 -20.840298 4.125420 16.174903 0.022000 3.244165 8.942089 0.248391 0.105424 -0.083057 -0.000000 0.000000 0.000000 0.000000 0.000000 0.000000 0.000000 
-8.179063 16.152458 1.344369 -172.521530 76.508766 -155.108095 6.631644 -3.451745 1.265358 0.105944 -3.954719 -1.974517 -8.605511 -3.858153 2.423837 7.654820 -9.671900 -7.848113 -4.316095 -0.319989 -0.182383 0.000000 0.000000 0.000000 3.350977 9.241915 2.490240 -18.447665 -10.845331 0.379449 0.005205 -88.157291 0.054719 -13.012057 0.221021 0.002248 0.170638 0.245829 -0.000000 0.000000 0.000000 0.000000 0.000000 0.000000 0.000000 18.093847 -8.329395 1.073946 66.430333 -8.309147 -21.709555 4.112091 15.192949 0.021772 2.952680 9.043200 0.227982 0.105039 -0.084684 -0.000000 0.000000 0.000000 0.000000 0.000000 0.000000 0.000000 
-7.965714 16.135540 1.320996 -170.463355 75.976145 -153.339217 7.301791 -3.362871 1.636510 0.206641 -3.888077 -1.935263 -8.704295 -3.794260 2.338312 7.607928 -9.132550 -7.812462 -4.419442 -0.327190 -0.182563 0.000000 0.000000 0.000000 3.164308 9.504679 2.531786 -18.856052 -10.354903 0.550060 0.017322 -88.542961 0.054448 -13.164339 0.023831 0.025138 0.168363 0.244506 -0.000000 0.000000 0.000000 0.000000 0.000000 0.000000 0.000000 18.366541 -7.734347 1.101678 66.403684 -7.729030 -22.635800 4.084240 14.171660 0.021390 2.624280 9.147808 0.204172 0.104128 -0.086324 -0.000000 0.000000 0.000000 0.000000 0.000000 0.000000 0.000000 
-7.758188 16.127955 1.297780 -168.888643 75.336984 -152.025180 7.887017 -3.278081 2.001686 0.291381 -3.819751 -1.898659 -8.802129 -3.729340 2.245856 7.578060 -8.543175 -7.738099 -4.531807 -0.335237 -0.172915 0.000000 0.000000 0.000000 2.997054 9.698518 2.571805 -19.449513 -9.937530 0.854035 0.024744 -88.826499 0.054112 -13.328875 -0.168932 0.048038 0.165636 0.242507 -0.000000 0.000000 0.000000 0.000000 0.000000 0.000000 0.000000 18.683897 -7.107292 1.129586 66.396648 -7.091107 -23.573317 4.043886 13.142476 0.020861 2.272478 9.252177 0.177860 0.102702 -0.087907 -0.000000 0.000000 0.000000 0.000000 0.000000 0.000000 0.000000 
-7.555933 16.129690 1.275592 -167.871646 74.582080 -151.230433 8.362959 -3.199139 2.343695 0.355762 -3.751237 -1.867113 -8.897259 -3.664678 2.148927 7.568108 -7.918716 -7.623916 -4.651742 -0.344020 -0.152775 0.000000 0.000000 0.000000 2.859160 9.810987 2.610540 -20.218929 -9.605591 1.303464 0.026106 -88.985538 0.053708 -13.508888 -0.344783 0.069348 0.162544 0.239614 0.000000 0.000000 0.000000 0.000000 0.000000 0.000000 0.000000 19.049995 -6.465820 1.156410 66.408989 -6.416810 -24.457759 3.992908 12.149941 0.020194 1.908704 9.350601 0.149846 0.100792 -0.089337 -0.000000 0.000000 0.000000 0.000000 0.000000 0.000000 0.000000 
-7.358256 16.140501 1.254380 -167.371042 73.703386 -150.901649 8.734864 -3.124729 2.642925 0.401635 -3.682817 -1.842948 -8.986786 -3.600233 2.053688 7.571464 -7.286489 -7.476141 -4.775263 -0.353180 -0.123441 0.000000 0.000000 0.000000 2.736827 9.848757 2.647563 -21.136778 -9.380670 1.908074 0.019309 -88.998396 0.053219 -13.703210 -0.494046 0.088070 0.159057 0.235699 0.000000 0.000000 0.000000 0.000000 0.000000 0.000000 0.000000 19.449579 -5.838385 1.180631 66.438737 -5.700899 -25.229583 3.935284 11.216217 0.019430 1.546184 9.443373 0.121333 0.098523 -0.090619 -0.000000 0.000000 0.000000 0.000000 0.000000 0.000000 0.000000 
-7.164444 16.159955 1.234233 -167.360513 72.699915 -151.004015 8.994571 -3.054505 2.885638 0.427916 -3.614774 -1.828599 -9.068543 -3.536227 1.960807 7.584107 -6.661488 -7.296170 -4.899493 -0.362506 -0.084948 0.000000 0.000000 0.000000 2.630279 9.796659 2.684054 -22.188052 -9.239196 2.672349 0.003051 -88.859379 0.052595 -13.910773 -0.608751 0.102905 0.155147 0.230529 -0.000000 0.000000 0.000000 0.000000 0.000000 0.000000 0.000000 19.871143 -5.239096 1.202468 66.486628 -4.955326 -25.834771 3.874682 10.374458 0.018613 1.200414 9.529581 0.093517 0.095999 -0.091764 -0.000000 0.000000 0.000000 0.000000 0.000000 0.000000 0.000000 
-6.973896 16.187500 1.215238 -167.807517 71.577826 -151.501753 9.126887 -2.988166 3.067392 0.431997 -3.546568 -1.824915 -9.140242 -3.472155 1.869538 7.604844 -6.044788 -7.084782 -5.021916 -0.371809 -0.037375 0.000000 0.000000 0.000000 2.547616 9.652809 2.722160 -23.363883 -9.170465 3.598295 -0.024710 -88.552248 0.051806 -14.130399 -0.684180 0.113152 0.150695 0.224018 0.000000 0.000000 0.000000 0.000000 0.000000 0.000000 0.000000 20.305904 -4.665993 1.221592 66.555246 -4.206368 -26.223386 3.814598 9.671760 0.017785 0.889167 9.604327 0.068005 0.093294 -0.092763 -0.000000 0.000000 0.000000 0.000000 0.000000 0.000000 0.000000 
-6.786022 16.222388 1.196737 -168.608445 70.347024 -152.287721 9.139832 -2.923663 3.185177 0.416173 -3.476993 -1.832254 -9.198686 -3.406891 1.781254 7.624375 -5.452183 -6.849034 -5.137941 -0.380719 0.017542 0.000000 0.000000 0.000000 2.475765 9.421191 2.762503 -24.640054 -9.149984 4.679998 -0.065564 -88.076206 0.050791 -14.355509 -0.719391 0.118514 0.145580 0.216111 0.000000 0.000000 0.000000 0.000000 0.000000 0.000000 0.000000 20.727976 -4.130923 1.238332 66.643151 -3.445872 -26.363995 3.758755 9.118614 0.017000 0.626270 9.671901 0.046294 0.090540 -0.093728 -0.000000 0.000000 0.000000 0.000000 0.000000 0.000000 0.000000 
